<?xml version="1.0" ?>
<!-- Uploaded to: SVG Repo, www.svgrepo.com, Generator: SVG Repo Mixer Tools -->
<svg fill="#000000" width="800px" height="800px" viewBox="0 0 128 128" xmlns="http://www.w3.org/2000/svg">
<title/>
<g id="Grid">
<path d="M119,88.6H9a1.5,1.5,0,0,1,0-3H119a1.5,1.5,0,0,1,0,3Z"/>
<path d="M112,95.6H18a1.5,1.5,0,0,1,0-3h94a1.5,1.5,0,0,1,0,3Z"/>
<path d="M114.7,88.6H16.3l.21-1.69A49.67,49.67,0,0,1,65,43.6h.52a49.48,49.48,0,0,1,49,43.31Zm-95-3h91.54a46.48,46.48,0,0,0-45.77-39H65A46.66,46.66,0,0,0,19.73,85.6Z"/>
<path d="M73,38.6a1.5,1.5,0,0,1-1.5-1.5,6.5,6.5,0,1,0-13,0,1.5,1.5,0,0,1-3,0,9.5,9.5,0,1,1,19,0A1.5,1.5,0,0,1,73,38.6Z"/>
<path d="M97,78.6a1.51,1.51,0,0,1-1.49-1.29A26.76,26.76,0,0,0,72.79,54.59a1.5,1.5,0,1,1,.42-3A29.81,29.81,0,0,1,98.49,76.89a1.52,1.52,0,0,1-1.28,1.7Z"/>
<path d="M105,102.6H25a1.5,1.5,0,0,1,0-3h80a1.5,1.5,0,0,1,0,3Z"/>
</g>
</svg>